<svg xmlns="http://www.w3.org/2000/svg" viewBox="0 0 326.71 163.92"><defs><style>.cls-1{fill:#fff;}</style></defs><title>swe-white</title><g id="Layer_2" data-name="Layer 2"><g id="Layer_1-2" data-name="Layer 1"><path class="cls-1" d="M139.69,76.61A3.75,3.75,0,0,1,138.43,78a3.41,3.41,0,0,1-1.77.42,5.75,5.75,0,0,1-2.61-.74c-.94-.5-2-1-3.31-1.66a28.28,28.28,0,0,0-4.48-1.65,21.6,21.6,0,0,0-6-.75,18.11,18.11,0,0,0-5.11.68,11.43,11.43,0,0,0-3.88,1.9,8.54,8.54,0,0,0-2.43,2.89,7.77,7.77,0,0,0-.84,3.56,6,6,0,0,0,1.54,4.23,13.39,13.39,0,0,0,4.1,2.93,39.72,39.72,0,0,0,5.78,2.22c2.16.66,4.37,1.36,6.62,2.12a68.67,68.67,0,0,1,6.64,2.6,24.75,24.75,0,0,1,5.78,3.64,16.56,16.56,0,0,1,4.09,5.22,16.32,16.32,0,0,1,1.55,7.43,23.54,23.54,0,0,1-1.84,9.38,21.05,21.05,0,0,1-5.35,7.47,24.73,24.73,0,0,1-8.79,4.94,40.52,40.52,0,0,1-19.24,1.09,40.33,40.33,0,0,1-6.63-1.83,33.92,33.92,0,0,1-5.85-2.79,30.58,30.58,0,0,1-4.84-3.52L95.06,122a4.79,4.79,0,0,1,1.59-1.66,4.33,4.33,0,0,1,2.36-.6,5.33,5.33,0,0,1,2.93.95c1,.64,2.09,1.33,3.38,2.09a26.34,26.34,0,0,0,4.69,2.07,20.94,20.94,0,0,0,6.84,1,18.78,18.78,0,0,0,5.85-.81,11.83,11.83,0,0,0,4.09-2.22,9.09,9.09,0,0,0,2.4-3.22,9.51,9.51,0,0,0,.77-3.84,6.56,6.56,0,0,0-1.55-4.51,13.28,13.28,0,0,0-4.12-3,38.21,38.21,0,0,0-5.85-2.26q-3.28-1-6.67-2.11a70.14,70.14,0,0,1-6.66-2.61,22.78,22.78,0,0,1-5.85-3.78,17.24,17.24,0,0,1-4.13-5.57,18.65,18.65,0,0,1-1.55-8,19.72,19.72,0,0,1,1.73-8.18,20,20,0,0,1,5.07-6.84,24.86,24.86,0,0,1,8.25-4.69A34,34,0,0,1,120,62.43a35.85,35.85,0,0,1,13.19,2.33,28.63,28.63,0,0,1,9.94,6.35Z"/><path class="cls-1" d="M146.6,63.56h12a4.77,4.77,0,0,1,2.93.88A4.11,4.11,0,0,1,163,66.52l12,41.89c.48,1.93.88,3.79,1.24,5.61s.67,3.6,1,5.39c.47-1.79,1-3.58,1.45-5.39s1.05-3.68,1.66-5.61l13.51-42.1a3.74,3.74,0,0,1,1.45-2.08,4.27,4.27,0,0,1,2.64-.81h6.63a4.59,4.59,0,0,1,2.75.81,3.73,3.73,0,0,1,1.47,2.08l13.12,42.1c.52,1.93,1,3.81,1.56,5.64s1,3.64,1.4,5.43a107.29,107.29,0,0,1,2.4-11.07l12.2-41.89A4.36,4.36,0,0,1,241,64.41a4.44,4.44,0,0,1,2.75-.85h11.43l-23.06,71.93H220.06c-1.41,0-2.4-.92-3-2.75L202.79,88c-.38-1.27-.72-2.53-1-3.77s-.58-2.5-.81-3.78q-.78,3.81-1.9,7.62L184.5,132.74a3.28,3.28,0,0,1-3.33,2.75h-11.5Z"/><path class="cls-1" d="M290.93,62.43a34.07,34.07,0,0,1,12.27,2.16,26.9,26.9,0,0,1,9.73,6.3,29.15,29.15,0,0,1,6.38,10.2A38.3,38.3,0,0,1,321.6,94.8c0,2.35-.26,3.93-.78,4.72a3.08,3.08,0,0,1-2.81,1.2H271.82a35.86,35.86,0,0,0,1.9,10.61,21.78,21.78,0,0,0,4.34,7.44,16.92,16.92,0,0,0,6.48,4.42,23.52,23.52,0,0,0,8.43,1.44,25.75,25.75,0,0,0,7.69-1,36.35,36.35,0,0,0,5.64-2.25q2.4-1.23,4.09-2.26a6.11,6.11,0,0,1,3.1-1,3.24,3.24,0,0,1,2.82,1.41l4.3,5.57a27.26,27.26,0,0,1-6.06,5.36,35.22,35.22,0,0,1-7.2,3.56,40.18,40.18,0,0,1-7.82,2,53,53,0,0,1-7.83.6,37.55,37.55,0,0,1-13.85-2.5,30.77,30.77,0,0,1-11.08-7.37,34.14,34.14,0,0,1-7.33-12.06A47.89,47.89,0,0,1,256.8,98a40.4,40.4,0,0,1,2.36-14,33.08,33.08,0,0,1,6.77-11.28,31.64,31.64,0,0,1,10.72-7.58A34.92,34.92,0,0,1,290.93,62.43Zm.28,11q-8.25,0-13,4.72t-6,13.25H308a22.21,22.21,0,0,0-1.1-7.08,16.56,16.56,0,0,0-3.21-5.71,14.46,14.46,0,0,0-5.25-3.81A17.83,17.83,0,0,0,291.21,73.44Z"/><path class="cls-1" d="M23.61,15.24c.78,1.4,1.66,2.76,2.36,4.2a12.47,12.47,0,0,1,.66,9.71,21.27,21.27,0,0,1-.87,2.14l11,5.86a21.81,21.81,0,0,1,35.11-.83L83,30.17c-.18-.44-.37-.87-.52-1.32a12.26,12.26,0,0,1-.12-7.69A23.5,23.5,0,0,1,84.84,16c.77-1.3,1.53-2.59,2.23-3.92a5.92,5.92,0,0,0,.73-3,5.32,5.32,0,0,0-1.68-3.53,21.57,21.57,0,0,0-8-4.93A19.39,19.39,0,0,0,75.88,0H74.57c-.34.08-.67.16-1,.27A5.08,5.08,0,0,0,71,2.35c-.71,1-1.35,2.15-2,3.26a39.55,39.55,0,0,1-2.82,4.66,12.76,12.76,0,0,1-8.73,5.08A19.53,19.53,0,0,1,49.9,15a12.38,12.38,0,0,1-7.5-5.33c-1-1.53-1.86-3.19-2.82-4.78a31.1,31.1,0,0,0-1.85-2.82A4.73,4.73,0,0,0,34.43.19s-.06,0-.09,0h-1.1l-1,.19a17.71,17.71,0,0,0-5.16,2.2A18.16,18.16,0,0,0,22.8,5.79a5.1,5.1,0,0,0-1.09,5.94C22.26,12.93,23,14.07,23.61,15.24Z"/><path class="cls-1" d="M108.62,44.18a5.09,5.09,0,0,0-4.3-3.93,23.08,23.08,0,0,0-3.33-.17A47.06,47.06,0,0,1,94.38,40a12.4,12.4,0,0,1-7-3.3c-.43-.41-.83-.84-1.21-1.28L74.92,41.6a21.84,21.84,0,0,1-16,29.55V84.3a12.74,12.74,0,0,1,7.75,5.09,58.26,58.26,0,0,1,3.07,5.15,25.54,25.54,0,0,0,1.92,2.9A4.72,4.72,0,0,0,75,99.29,6.83,6.83,0,0,0,77.68,99a23,23,0,0,0,7.67-4.25,11.28,11.28,0,0,0,1.53-1.56,5,5,0,0,0,.59-5.69c-.53-1.13-1.21-2.21-1.82-3.3-.77-1.37-1.63-2.7-2.32-4.11a12.49,12.49,0,0,1-.73-9.61,19.61,19.61,0,0,1,3.81-6.8,12.43,12.43,0,0,1,6.7-4.17,24.63,24.63,0,0,1,6.3-.45c1.43,0,2.88,0,4.32-.07a5.11,5.11,0,0,0,3.77-1.8,6.47,6.47,0,0,0,1.22-2.48,20.64,20.64,0,0,0,.53-6.36A15.74,15.74,0,0,0,108.62,44.18Z"/><path class="cls-1" d="M52.82,71.47A21.8,21.8,0,0,1,34,42.55L22.34,36.36l-.05.07a12.28,12.28,0,0,1-5.45,3.36,18,18,0,0,1-5.06.65c-1.78,0-3.57-.07-5.35,0a9.49,9.49,0,0,0-2.18.32A5.07,5.07,0,0,0,.64,44.48,19,19,0,0,0,0,50.2a17.38,17.38,0,0,0,.69,5.17A5.08,5.08,0,0,0,5,59.21a20.72,20.72,0,0,0,3.15.17A45.82,45.82,0,0,1,15,59.5a12.47,12.47,0,0,1,6.54,2.92,18.68,18.68,0,0,1,5.21,7.93,12.41,12.41,0,0,1,.09,8.31,24.37,24.37,0,0,1-2.24,4.59c-.79,1.33-1.58,2.66-2.32,4A6.09,6.09,0,0,0,21.48,90a5.3,5.3,0,0,0,1.64,3.88,17.88,17.88,0,0,0,4.31,3.23,16.88,16.88,0,0,0,5.5,2.22,4.94,4.94,0,0,0,4.94-1.7,17.05,17.05,0,0,0,1.51-2.16c1-1.73,1.91-3.52,3-5.21a12.65,12.65,0,0,1,7.73-5.83A17.42,17.42,0,0,1,52.82,84Z"/><path class="cls-1" d="M99.47,149.94a.71.71,0,0,1-.23.27.49.49,0,0,1-.3.09.75.75,0,0,1-.42-.14l-.52-.31a4.58,4.58,0,0,0-.73-.31,3.06,3.06,0,0,0-1-.14,3,3,0,0,0-.89.12,1.73,1.73,0,0,0-.63.34,1.52,1.52,0,0,0-.39.52,1.81,1.81,0,0,0-.12.67,1.14,1.14,0,0,0,.25.76,2.22,2.22,0,0,0,.69.53,7,7,0,0,0,1,.39l1.11.36c.38.14.75.29,1.11.46a3.66,3.66,0,0,1,1,.65,2.79,2.79,0,0,1,.68,1,3.26,3.26,0,0,1,.26,1.39,4.57,4.57,0,0,1-.3,1.66,3.74,3.74,0,0,1-.89,1.35,4.15,4.15,0,0,1-1.43.9,5.22,5.22,0,0,1-1.92.33,6.26,6.26,0,0,1-1.23-.12,6.34,6.34,0,0,1-1.17-.35,6,6,0,0,1-1-.54,4.72,4.72,0,0,1-.87-.71l.71-1.16a.73.73,0,0,1,.24-.22.68.68,0,0,1,.31-.08.85.85,0,0,1,.48.18c.18.13.39.26.63.41a4,4,0,0,0,.85.41,3.1,3.1,0,0,0,1.16.19,2.38,2.38,0,0,0,1.61-.49,1.77,1.77,0,0,0,.57-1.42,1.34,1.34,0,0,0-.26-.84,2,2,0,0,0-.68-.55,4.78,4.78,0,0,0-1-.37c-.36-.1-.73-.22-1.1-.34a11.55,11.55,0,0,1-1.11-.43,3.57,3.57,0,0,1-1-.66,3,3,0,0,1-.69-1,3.93,3.93,0,0,1-.26-1.51,3.67,3.67,0,0,1,1.12-2.6,3.93,3.93,0,0,1,1.34-.84,4.94,4.94,0,0,1,1.83-.31,5.88,5.88,0,0,1,2.13.36,4.91,4.91,0,0,1,1.67,1Z"/><path class="cls-1" d="M106.19,151.22a5.1,5.1,0,0,1,1.87.33,4.15,4.15,0,0,1,1.45.95,4.1,4.1,0,0,1,.93,1.5,6.17,6.17,0,0,1,0,4,4.22,4.22,0,0,1-.93,1.51,3.92,3.92,0,0,1-1.45,1,5.1,5.1,0,0,1-1.87.33,5.23,5.23,0,0,1-1.9-.33,4,4,0,0,1-1.45-1,4.37,4.37,0,0,1-.93-1.51,6.17,6.17,0,0,1,0-4,4,4,0,0,1,2.38-2.45A5.23,5.23,0,0,1,106.19,151.22Zm0,7.85a2,2,0,0,0,1.71-.78,4.94,4.94,0,0,0,0-4.57,1.94,1.94,0,0,0-1.71-.79,2,2,0,0,0-1.75.79,4,4,0,0,0-.56,2.29,3.9,3.9,0,0,0,.56,2.27A2,2,0,0,0,106.19,159.07Z"/><path class="cls-1" d="M119.13,153.33a1.88,1.88,0,0,1-.19.2.47.47,0,0,1-.28.07.62.62,0,0,1-.34-.11,3.77,3.77,0,0,0-.38-.23,3.37,3.37,0,0,0-.54-.24,2.51,2.51,0,0,0-.78-.1,2.4,2.4,0,0,0-1,.21,2.07,2.07,0,0,0-.74.61,3,3,0,0,0-.44,1,5.45,5.45,0,0,0-.14,1.28,4.87,4.87,0,0,0,.16,1.32,2.73,2.73,0,0,0,.46,1,1.89,1.89,0,0,0,.72.6,2.26,2.26,0,0,0,1,.2,2.32,2.32,0,0,0,.86-.13,2.65,2.65,0,0,0,.56-.29c.15-.1.28-.2.39-.29a.58.58,0,0,1,.38-.13.46.46,0,0,1,.41.21l.64.81a3.94,3.94,0,0,1-.81.73,3.88,3.88,0,0,1-.9.47,4.52,4.52,0,0,1-1,.25,6.46,6.46,0,0,1-1,.07,4,4,0,0,1-1.62-.32,3.82,3.82,0,0,1-1.33-.93,4.53,4.53,0,0,1-.9-1.51,5.84,5.84,0,0,1-.33-2,6.1,6.1,0,0,1,.29-1.9,4.33,4.33,0,0,1,.87-1.51,3.89,3.89,0,0,1,1.41-1,4.9,4.9,0,0,1,1.94-.36,4.65,4.65,0,0,1,1.82.33,4.77,4.77,0,0,1,1.41,1Z"/><path class="cls-1" d="M123.83,148.66a1.18,1.18,0,0,1-.12.53,1.34,1.34,0,0,1-.31.45,1.54,1.54,0,0,1-1,.42,1.3,1.3,0,0,1-.55-.12,1.23,1.23,0,0,1-.44-.3,1.34,1.34,0,0,1-.31-.45,1.17,1.17,0,0,1-.11-.53,1.35,1.35,0,0,1,.11-.57,1.57,1.57,0,0,1,.31-.45,1.37,1.37,0,0,1,.44-.3,1.29,1.29,0,0,1,.55-.11,1.3,1.3,0,0,1,.56.11,1.47,1.47,0,0,1,.46.3,1.57,1.57,0,0,1,.31.45A1.35,1.35,0,0,1,123.83,148.66Zm-.31,2.7v9.29h-2.24v-9.29Z"/><path class="cls-1" d="M129.76,151.22a4.52,4.52,0,0,1,1.62.28,3.4,3.4,0,0,1,1.27.82,3.65,3.65,0,0,1,.84,1.32,5,5,0,0,1,.3,1.79,1.52,1.52,0,0,1-.1.68.48.48,0,0,1-.42.18h-5.75a4.6,4.6,0,0,0,.25,1.23,2.61,2.61,0,0,0,.53.86,2.21,2.21,0,0,0,.77.51,2.87,2.87,0,0,0,1,.17,3.16,3.16,0,0,0,.93-.13,5.18,5.18,0,0,0,.69-.28c.2-.1.37-.2.52-.29a.9.9,0,0,1,.42-.12.46.46,0,0,1,.42.21l.65.81a3.62,3.62,0,0,1-.84.73,4.07,4.07,0,0,1-1,.47,5.42,5.42,0,0,1-1,.25,7.15,7.15,0,0,1-1,.07,4.89,4.89,0,0,1-1.81-.32,4,4,0,0,1-1.44-1,4.44,4.44,0,0,1-1-1.55,6,6,0,0,1-.35-2.15,5.25,5.25,0,0,1,.3-1.79,4.25,4.25,0,0,1,.89-1.46,4.15,4.15,0,0,1,1.4-1A4.62,4.62,0,0,1,129.76,151.22Zm0,1.6a2.07,2.07,0,0,0-1.53.55,2.7,2.7,0,0,0-.7,1.57h4.21a2.71,2.71,0,0,0-.12-.82,1.93,1.93,0,0,0-.36-.68,1.77,1.77,0,0,0-.62-.45A2,2,0,0,0,129.8,152.82Z"/><path class="cls-1" d="M138.46,160.79a2.45,2.45,0,0,1-1.86-.68,2.58,2.58,0,0,1-.65-1.89V153H135a.45.45,0,0,1-.31-.12.48.48,0,0,1-.12-.35v-.89l1.49-.24.47-2.54a.45.45,0,0,1,.17-.28.5.5,0,0,1,.33-.1h1.15v2.92h2.49V153h-2.49v5a1,1,0,0,0,.22.68.73.73,0,0,0,.58.24,1.13,1.13,0,0,0,.35-.05l.25-.1.18-.11a.37.37,0,0,1,.16,0,.31.31,0,0,1,.17,0l.13.15.67,1.09a3.4,3.4,0,0,1-1.12.62A4.48,4.48,0,0,1,138.46,160.79Z"/><path class="cls-1" d="M145.47,163.2a.68.68,0,0,1-.74.48h-1.67L144.8,160l-3.76-8.6h2a.59.59,0,0,1,.41.13.77.77,0,0,1,.22.29l2,4.81a9.32,9.32,0,0,1,.3,1c0-.17.1-.34.15-.5s.12-.33.19-.49l1.86-4.81a.64.64,0,0,1,.24-.3.64.64,0,0,1,.38-.12h1.79Z"/><path class="cls-1" d="M159.7,151.22a5.12,5.12,0,0,1,1.88.33,4.15,4.15,0,0,1,1.45.95A4.23,4.23,0,0,1,164,154a6.35,6.35,0,0,1,0,4,4.37,4.37,0,0,1-.93,1.51,3.92,3.92,0,0,1-1.45,1,5.12,5.12,0,0,1-1.88.33,5.21,5.21,0,0,1-1.89-.33,3.92,3.92,0,0,1-1.45-1,4.39,4.39,0,0,1-.94-1.51,6.17,6.17,0,0,1,0-4,4.25,4.25,0,0,1,.94-1.5,4.15,4.15,0,0,1,1.45-.95A5.21,5.21,0,0,1,159.7,151.22Zm0,7.85a2,2,0,0,0,1.72-.78,5,5,0,0,0,0-4.57,2,2,0,0,0-1.72-.79,2,2,0,0,0-1.74.79,3.89,3.89,0,0,0-.57,2.29,3.82,3.82,0,0,0,.57,2.27A2,2,0,0,0,159.7,159.07Z"/><path class="cls-1" d="M166.42,160.65V153l-.81-.12a1,1,0,0,1-.42-.19.47.47,0,0,1-.16-.37v-.92h1.39v-.68a4,4,0,0,1,.24-1.43,2.91,2.91,0,0,1,1.78-1.76,4.06,4.06,0,0,1,1.44-.24,3.87,3.87,0,0,1,1.2.18l-.05,1.12a.32.32,0,0,1-.07.2.37.37,0,0,1-.17.12,1.2,1.2,0,0,1-.24.06h-.29a3.08,3.08,0,0,0-.71.08,1.33,1.33,0,0,0-.53.3,1.31,1.31,0,0,0-.32.57,2.58,2.58,0,0,0-.12.86v.61H171V153h-2.35v7.61Z"/><path class="cls-1" d="M175.36,147.56h2a.9.9,0,0,1,.53.15.72.72,0,0,1,.28.4l2.23,7.83c.05.19.1.4.14.63s.09.47.14.72c.05-.25.1-.49.16-.72s.12-.44.18-.63l2.57-7.83a.92.92,0,0,1,.29-.38.83.83,0,0,1,.52-.17h.71a.82.82,0,0,1,.52.15,1.08,1.08,0,0,1,.3.4l2.56,7.83a13.07,13.07,0,0,1,.35,1.29c.07-.47.16-.9.25-1.29l2.24-7.83a.64.64,0,0,1,.27-.39.92.92,0,0,1,.53-.16h1.91L190,160.65h-2.2L185,151.71c-.05-.12-.08-.24-.13-.38s-.06-.27-.1-.41c0,.14-.07.28-.1.41s-.08.26-.12.38l-2.89,8.94h-2.2Z"/><path class="cls-1" d="M198.34,151.22a5.12,5.12,0,0,1,1.88.33A4,4,0,0,1,202.6,154a6.35,6.35,0,0,1,0,4,4.37,4.37,0,0,1-.93,1.51,4,4,0,0,1-1.45,1,5.12,5.12,0,0,1-1.88.33,5.21,5.21,0,0,1-1.89-.33,3.92,3.92,0,0,1-1.45-1,4.39,4.39,0,0,1-.94-1.51,6.17,6.17,0,0,1,0-4,4.25,4.25,0,0,1,.94-1.5,4.15,4.15,0,0,1,1.45-.95A5.21,5.21,0,0,1,198.34,151.22Zm0,7.85a2,2,0,0,0,1.72-.78,5,5,0,0,0,0-4.57,2,2,0,0,0-1.72-.79,2,2,0,0,0-1.74.79A3.89,3.89,0,0,0,196,156a3.82,3.82,0,0,0,.57,2.27A2,2,0,0,0,198.34,159.07Z"/><path class="cls-1" d="M204.63,160.65v-9.29H206a.55.55,0,0,1,.57.41l.15.69a4,4,0,0,1,.51-.5,2.87,2.87,0,0,1,.57-.39,3.39,3.39,0,0,1,.65-.26,3,3,0,0,1,.76-.09,2.22,2.22,0,0,1,1.45.47,2.89,2.89,0,0,1,.84,1.26,3,3,0,0,1,.55-.79,2.84,2.84,0,0,1,.71-.54,3.94,3.94,0,0,1,.83-.31,4.41,4.41,0,0,1,.89-.09,3.84,3.84,0,0,1,1.36.23,2.64,2.64,0,0,1,1,.69,3,3,0,0,1,.63,1.1,4.94,4.94,0,0,1,.21,1.5v5.91h-2.24v-5.91a2,2,0,0,0-.39-1.34,1.46,1.46,0,0,0-1.14-.45,1.91,1.91,0,0,0-.64.12,1.47,1.47,0,0,0-.51.34,1.45,1.45,0,0,0-.35.56,2,2,0,0,0-.13.77v5.91H210v-5.91a2,2,0,0,0-.38-1.36,1.39,1.39,0,0,0-1.1-.43,1.76,1.76,0,0,0-.91.25,3.14,3.14,0,0,0-.78.65v6.8Z"/><path class="cls-1" d="M223.75,151.22a4.45,4.45,0,0,1,1.62.28,3.43,3.43,0,0,1,1.28.82,3.93,3.93,0,0,1,.84,1.32,5,5,0,0,1,.3,1.79,1.49,1.49,0,0,1-.11.68.47.47,0,0,1-.42.18h-5.74a4.24,4.24,0,0,0,.25,1.23,2.44,2.44,0,0,0,.52.86,2.16,2.16,0,0,0,.78.51,2.86,2.86,0,0,0,1,.17,3.16,3.16,0,0,0,.93-.13,5.36,5.36,0,0,0,.7-.28l.51-.29a.9.9,0,0,1,.43-.12.46.46,0,0,1,.42.21l.64.81a3.79,3.79,0,0,1-.83.73,4.13,4.13,0,0,1-1,.47,5.07,5.07,0,0,1-1,.25,7.05,7.05,0,0,1-1,.07,4.8,4.8,0,0,1-1.8-.32,3.93,3.93,0,0,1-1.45-1,4.59,4.59,0,0,1-1-1.55,6.17,6.17,0,0,1-.35-2.15,5.25,5.25,0,0,1,.3-1.79,4.41,4.41,0,0,1,.89-1.46,4.15,4.15,0,0,1,1.4-1A4.65,4.65,0,0,1,223.75,151.22Zm0,1.6a2,2,0,0,0-1.52.55,2.7,2.7,0,0,0-.71,1.57h4.22a2.71,2.71,0,0,0-.12-.82,1.94,1.94,0,0,0-.37-.68,1.68,1.68,0,0,0-.62-.45A2,2,0,0,0,223.79,152.82Z"/><path class="cls-1" d="M229.46,160.65v-9.29h1.37a.55.55,0,0,1,.57.41l.15.73a5.88,5.88,0,0,1,.6-.52,3.46,3.46,0,0,1,.66-.41,3.6,3.6,0,0,1,.74-.26,4,4,0,0,1,.87-.09,3.19,3.19,0,0,1,1.35.26,2.63,2.63,0,0,1,1,.72,3,3,0,0,1,.6,1.11,4.62,4.62,0,0,1,.21,1.43v5.91h-2.24v-5.91a2,2,0,0,0-.39-1.32,1.45,1.45,0,0,0-1.18-.47,2.26,2.26,0,0,0-1.09.27,3.73,3.73,0,0,0-1,.71v6.72Z"/><path class="cls-1" d="M252.68,147.56v1.94h-5.81v3.63h4.58V155h-4.58v3.7h5.81v2h-8.26V147.56Z"/><path class="cls-1" d="M254.29,160.65v-9.29h1.37a.55.55,0,0,1,.57.41l.15.73A7.08,7.08,0,0,1,257,152a3.54,3.54,0,0,1,.67-.41,3.6,3.6,0,0,1,.74-.26,4,4,0,0,1,.87-.09,3.19,3.19,0,0,1,1.35.26,2.63,2.63,0,0,1,1,.72,3.13,3.13,0,0,1,.6,1.11,4.62,4.62,0,0,1,.2,1.43v5.91h-2.23v-5.91a2,2,0,0,0-.39-1.32,1.46,1.46,0,0,0-1.19-.47,2.25,2.25,0,0,0-1.08.27,3.73,3.73,0,0,0-1,.71v6.72Z"/><path class="cls-1" d="M267.9,151.2a4.91,4.91,0,0,1,1.11.12,3.88,3.88,0,0,1,1,.36h2.67v.83c0,.27-.16.43-.48.49l-.83.15a4.1,4.1,0,0,1,.14.5,3.31,3.31,0,0,1,0,.55,2.87,2.87,0,0,1-.28,1.25,2.77,2.77,0,0,1-.76.94,3.66,3.66,0,0,1-1.16.61,4.71,4.71,0,0,1-1.43.21,5.07,5.07,0,0,1-1-.1.71.71,0,0,0-.43.59.44.44,0,0,0,.26.41,2.13,2.13,0,0,0,.68.19,9,9,0,0,0,1,.06l1.11.06a8.39,8.39,0,0,1,1.12.16,3.14,3.14,0,0,1,1,.36,1.82,1.82,0,0,1,.69.66,2.08,2.08,0,0,1,.26,1.08,2.58,2.58,0,0,1-.31,1.2,3.05,3.05,0,0,1-.88,1,4.46,4.46,0,0,1-1.41.73,6.13,6.13,0,0,1-1.9.28,7.09,7.09,0,0,1-1.83-.21,4.21,4.21,0,0,1-1.3-.54,2.34,2.34,0,0,1-.76-.78,1.86,1.86,0,0,1-.26-.92,1.53,1.53,0,0,1,.4-1.09,2.71,2.71,0,0,1,1.07-.71,1.6,1.6,0,0,1-.58-.51,1.38,1.38,0,0,1-.22-.83,1.68,1.68,0,0,1,.07-.43,1.86,1.86,0,0,1,.23-.44,1.8,1.8,0,0,1,.38-.41,2.56,2.56,0,0,1,.53-.35,2.83,2.83,0,0,1-1.1-1,2.73,2.73,0,0,1-.41-1.49,2.66,2.66,0,0,1,.28-1.24,2.72,2.72,0,0,1,.77-1,3.41,3.41,0,0,1,1.17-.6A4.93,4.93,0,0,1,267.9,151.2Zm2.52,9.87a.58.58,0,0,0-.16-.44,1.23,1.23,0,0,0-.45-.27,3.29,3.29,0,0,0-.65-.15c-.25,0-.52-.05-.8-.06l-.87,0c-.29,0-.59,0-.87-.08a2,2,0,0,0-.6.49,1,1,0,0,0-.23.65.93.93,0,0,0,.12.46,1,1,0,0,0,.39.37,2.51,2.51,0,0,0,.69.24,6.11,6.11,0,0,0,1,.08,5.59,5.59,0,0,0,1.08-.09,3,3,0,0,0,.75-.26,1.1,1.1,0,0,0,.42-.41A.87.87,0,0,0,270.42,161.07Zm-2.52-5.29a2.22,2.22,0,0,0,.72-.11,1.31,1.31,0,0,0,.51-.32,1.21,1.21,0,0,0,.31-.48,1.7,1.7,0,0,0,.1-.61,1.43,1.43,0,0,0-.41-1.09,1.67,1.67,0,0,0-1.23-.41,1.72,1.72,0,0,0-1.24.41,1.47,1.47,0,0,0-.41,1.09,1.68,1.68,0,0,0,.1.6,1.64,1.64,0,0,0,.31.49,1.58,1.58,0,0,0,.52.32A2.27,2.27,0,0,0,267.9,155.78Z"/><path class="cls-1" d="M276.71,148.66a1.18,1.18,0,0,1-.12.53,1.21,1.21,0,0,1-.31.45,1.35,1.35,0,0,1-.47.3,1.39,1.39,0,0,1-.57.12,1.26,1.26,0,0,1-.55-.12,1.37,1.37,0,0,1-.45-.3,1.31,1.31,0,0,1-.3-.45,1.17,1.17,0,0,1-.11-.53,1.35,1.35,0,0,1,.11-.57,1.38,1.38,0,0,1,.75-.75,1.26,1.26,0,0,1,.55-.11,1.38,1.38,0,0,1,.57.11,1.51,1.51,0,0,1,.47.3,1.39,1.39,0,0,1,.31.45A1.35,1.35,0,0,1,276.71,148.66Zm-.31,2.7v9.29h-2.26v-9.29Z"/><path class="cls-1" d="M278.69,160.65v-9.29h1.36a.55.55,0,0,1,.57.41l.15.73a5.88,5.88,0,0,1,.6-.52,3.8,3.8,0,0,1,.66-.41,3.6,3.6,0,0,1,.74-.26,4,4,0,0,1,.87-.09,3.19,3.19,0,0,1,1.35.26,2.67,2.67,0,0,1,1,.72,3.11,3.11,0,0,1,.59,1.11,4.62,4.62,0,0,1,.21,1.43v5.91h-2.24v-5.91a2,2,0,0,0-.39-1.32A1.45,1.45,0,0,0,283,153a2.29,2.29,0,0,0-1.09.27,3.73,3.73,0,0,0-1,.71v6.72Z"/><path class="cls-1" d="M292.85,151.22a4.48,4.48,0,0,1,1.62.28,3.43,3.43,0,0,1,1.28.82,3.76,3.76,0,0,1,.83,1.32,4.76,4.76,0,0,1,.31,1.79,1.49,1.49,0,0,1-.11.68.47.47,0,0,1-.42.18h-5.75a4.59,4.59,0,0,0,.26,1.23,2.6,2.6,0,0,0,.52.86,2.16,2.16,0,0,0,.78.51,2.86,2.86,0,0,0,1,.17,3.16,3.16,0,0,0,.93-.13,4.68,4.68,0,0,0,.69-.28c.2-.1.37-.2.52-.29a.9.9,0,0,1,.43-.12.47.47,0,0,1,.42.21l.64.81a3.62,3.62,0,0,1-.84.73,3.89,3.89,0,0,1-1,.47,5.42,5.42,0,0,1-1,.25,7.15,7.15,0,0,1-1,.07,4.84,4.84,0,0,1-1.8-.32,3.93,3.93,0,0,1-1.45-1,4.59,4.59,0,0,1-1-1.55,6.17,6.17,0,0,1-.35-2.15,5,5,0,0,1,.31-1.79,4.23,4.23,0,0,1,.88-1.46,4.15,4.15,0,0,1,1.4-1A4.62,4.62,0,0,1,292.85,151.22Zm0,1.6a2.07,2.07,0,0,0-1.53.55,2.76,2.76,0,0,0-.7,1.57h4.22a2.71,2.71,0,0,0-.12-.82,2.12,2.12,0,0,0-.37-.68,1.68,1.68,0,0,0-.62-.45A2,2,0,0,0,292.89,152.82Z"/><path class="cls-1" d="M302.52,151.22a4.52,4.52,0,0,1,1.62.28,3.52,3.52,0,0,1,1.28.82,3.76,3.76,0,0,1,.83,1.32,5,5,0,0,1,.3,1.79,1.52,1.52,0,0,1-.1.68.49.49,0,0,1-.42.18h-5.75a4.6,4.6,0,0,0,.25,1.23,2.61,2.61,0,0,0,.53.86,2.16,2.16,0,0,0,.78.51,2.78,2.78,0,0,0,1,.17,3.16,3.16,0,0,0,.93-.13,5.18,5.18,0,0,0,.69-.28c.2-.1.37-.2.52-.29a.87.87,0,0,1,.42-.12.46.46,0,0,1,.42.21l.64.81a3.38,3.38,0,0,1-.83.73,4.07,4.07,0,0,1-1,.47,5.42,5.42,0,0,1-1,.25,7.15,7.15,0,0,1-1,.07,4.89,4.89,0,0,1-1.81-.32,4,4,0,0,1-1.44-1,4.44,4.44,0,0,1-1-1.55,5.94,5.94,0,0,1-.36-2.15,5.26,5.26,0,0,1,.31-1.79,4.38,4.38,0,0,1,.88-1.46,4.2,4.2,0,0,1,1.41-1A4.62,4.62,0,0,1,302.52,151.22Zm0,1.6a2.07,2.07,0,0,0-1.53.55,2.77,2.77,0,0,0-.71,1.57h4.22a2.43,2.43,0,0,0-.12-.82,1.93,1.93,0,0,0-.36-.68,1.77,1.77,0,0,0-.62-.45A2,2,0,0,0,302.56,152.82Z"/><path class="cls-1" d="M308.23,160.65v-9.29h1.31a.73.73,0,0,1,.48.12.75.75,0,0,1,.18.44l.13,1.05a4.1,4.1,0,0,1,1-1.31,2.24,2.24,0,0,1,1.41-.47,1.75,1.75,0,0,1,1,.28l-.15,1.67a.46.46,0,0,1-.13.24.41.41,0,0,1-.23.06,2.61,2.61,0,0,1-.41,0,2.32,2.32,0,0,0-.51-.05,2,2,0,0,0-.67.11,1.84,1.84,0,0,0-.52.31,2,2,0,0,0-.4.5,4.06,4.06,0,0,0-.33.66v5.72Z"/><path class="cls-1" d="M320.65,153.17a.66.66,0,0,1-.19.21.47.47,0,0,1-.25.05.79.79,0,0,1-.35-.09c-.13-.05-.27-.12-.43-.2a3.65,3.65,0,0,0-.56-.2,2.68,2.68,0,0,0-.74-.09,1.66,1.66,0,0,0-1,.28.88.88,0,0,0-.38.73.72.72,0,0,0,.19.5,1.84,1.84,0,0,0,.52.36,5.59,5.59,0,0,0,.73.27l.83.27c.28.1.55.21.83.33a3.26,3.26,0,0,1,.73.47,2.21,2.21,0,0,1,.51.69,2.13,2.13,0,0,1,.19,1,3.1,3.1,0,0,1-.24,1.23,2.63,2.63,0,0,1-.7,1,3.47,3.47,0,0,1-1.17.64,4.84,4.84,0,0,1-1.59.23,5.67,5.67,0,0,1-.94-.08,6,6,0,0,1-.88-.24,4.64,4.64,0,0,1-.78-.36,3.41,3.41,0,0,1-.63-.46l.52-.85a.66.66,0,0,1,.24-.23.57.57,0,0,1,.34-.09.81.81,0,0,1,.39.12l.43.26a4.78,4.78,0,0,0,.58.25,2.47,2.47,0,0,0,.83.12,2,2,0,0,0,.69-.1,1.41,1.41,0,0,0,.47-.25,1,1,0,0,0,.27-.35,1.06,1.06,0,0,0,.08-.43.75.75,0,0,0-.19-.53,1.6,1.6,0,0,0-.52-.36,4.65,4.65,0,0,0-.73-.28l-.84-.26a7.76,7.76,0,0,1-.84-.34,2.68,2.68,0,0,1-.74-.5,2.17,2.17,0,0,1-.51-.73,2.55,2.55,0,0,1-.2-1,2.73,2.73,0,0,1,.23-1.09,2.62,2.62,0,0,1,.66-.9,3.24,3.24,0,0,1,1.1-.61,4.42,4.42,0,0,1,1.52-.23,4.7,4.7,0,0,1,1.75.31,4.2,4.2,0,0,1,1.31.83Z"/><path class="cls-1" d="M314.07,62.49v-.75h5.29v.75h-2.2v5.88h-.88V62.49Z"/><path class="cls-1" d="M321.32,61.74l2.09,5.57,2.09-5.57h1.21v6.63h-.83V62.86h0l-2.07,5.51H323L321,62.86h0v5.51h-.83V61.74Z"/></g></g></svg>